<svg width="30" height="30" viewBox="0 0 50 50" fill="none" xmlns="http://www.w3.org/2000/svg">
<path d="M18.7501 31.2503L12.5667 37.4337C11.8786 38.1217 11.0018 38.5902 10.0474 38.78C9.09293 38.9699 8.10363 38.8724 7.20457 38.5C6.3055 38.1276 5.53702 37.497 4.99631 36.688C4.45559 35.8789 4.1669 34.9276 4.16675 33.9545V31.2503L6.99383 17.117C7.37142 15.2279 8.39188 13.5279 9.88157 12.3064C11.3713 11.0849 13.2382 10.4172 15.1647 10.417H34.8355C36.762 10.4172 38.6289 11.0849 40.1186 12.3064C41.6083 13.5279 42.6287 15.2279 43.0063 17.117L45.8334 31.2503V33.9524C45.8333 34.9255 45.5446 35.8768 45.0039 36.6859C44.4631 37.495 43.6947 38.1256 42.7956 38.4979C41.8965 38.8703 40.9072 38.9678 39.9528 38.778C38.9983 38.5881 38.1216 38.1196 37.4334 37.4316L31.2501 31.2503H18.7501Z" stroke="white" stroke-width="2" stroke-linecap="round" stroke-linejoin="round"/>
<path d="M18.75 10.417L20.8333 14.5837H29.1667L31.25 10.417" stroke="white" stroke-width="2" stroke-linecap="round" stroke-linejoin="round"/>
</svg>
