<svg width="35" height="35" viewBox="0 0 38 46" fill="none" xmlns="http://www.w3.org/2000/svg">
<g clip-path="url(#clip0)">
<path d="M36.7398 42.1667C36.8437 38.2975 35.947 34.4719 34.1466 31.1035C32.3462 27.7351 29.7107 24.9522 26.5251 23.0556L26.4256 23C32.6268 19.3027 36.7471 12.3759 36.7471 4.42942C36.7471 4.2205 36.7435 4.01158 36.738 3.80267V3.83333C36.9664 3.82796 37.1913 3.77301 37.3989 3.6719C37.6064 3.57078 37.7922 3.42564 37.9446 3.24545C38.0971 3.06527 38.2131 2.85387 38.2853 2.62432C38.3576 2.39478 38.3847 2.15197 38.3648 1.91092V1.91667C38.3839 1.67623 38.3563 1.4342 38.2838 1.20546C38.2113 0.976724 38.0953 0.766118 37.9431 0.586592C37.7909 0.407067 37.6057 0.262418 37.3987 0.16154C37.1918 0.0606622 36.9676 0.00568869 36.7398 0L1.63328 0C1.40458 0.00485894 1.17927 0.0594243 0.971298 0.160313C0.76333 0.261202 0.577144 0.406264 0.424283 0.586506C0.271422 0.766748 0.155144 0.978327 0.0826588 1.20813C0.0101732 1.43793 -0.0169752 1.68105 0.0028968 1.92242V1.91667C-0.0161841 2.15742 0.0114947 2.39977 0.0842266 2.62876C0.156959 2.85775 0.273202 3.06853 0.42579 3.24811C0.578379 3.42769 0.764077 3.57226 0.971437 3.67291C1.1788 3.77356 1.40342 3.82816 1.63147 3.83333H1.63328C1.52942 7.7025 2.42616 11.5281 4.22654 14.8965C6.02692 18.2649 8.66242 21.0478 11.848 22.9444L11.9476 23C5.74632 26.6973 1.62604 33.6241 1.62604 41.5706C1.62604 41.7795 1.62966 41.9884 1.63509 42.1973V42.1667C1.19192 42.2211 0.782997 42.4459 0.485837 42.7983C0.188676 43.1508 0.0239257 43.6065 0.0228104 44.0791C0.021695 44.5516 0.184293 45.0082 0.479785 45.3623C0.775278 45.7163 1.18313 45.9432 1.62604 46H36.9172C37.1457 45.9949 37.3708 45.9401 37.5786 45.8391C37.7863 45.7381 37.9723 45.593 38.125 45.4128C38.2776 45.2326 38.3938 45.0211 38.4661 44.7914C38.5385 44.5618 38.5656 44.3188 38.5457 44.0776V44.0833C38.5457 43.5753 38.3554 43.0881 38.0164 42.7287C37.6774 42.3693 37.2176 42.1672 36.738 42.1667H36.7398ZM4.71128 42.1667C4.71128 32.5833 11.0446 24.9167 19.1875 24.9167C27.3303 24.9167 33.6637 32.5833 33.6637 42.1667H4.71128Z" fill="white"/>
</g>
<defs>
<clipPath id="clip0">
<rect width="38" height="46" fill="white"/>
</clipPath>
</defs>
</svg>
