<svg width="35" height="35" viewBox="0 0 50 50" fill="none" xmlns="http://www.w3.org/2000/svg">
<path d="M5.2085 36.4583C5.2085 35.9058 5.42799 35.3759 5.81869 34.9852C6.20939 34.5945 6.73929 34.375 7.29183 34.375H42.7085C43.261 34.375 43.7909 34.5945 44.1816 34.9852C44.5723 35.3759 44.7918 35.9058 44.7918 36.4583V43.75H5.2085V36.4583Z" stroke="white" stroke-width="2" stroke-linecap="round" stroke-linejoin="round"/>
<path d="M43.7501 18.75H35.4167L29.1667 12.5L35.4167 6.25H43.7501" stroke="white" stroke-width="2" stroke-linecap="round" stroke-linejoin="round"/>
<path d="M8.33341 16.6668C10.6346 16.6668 12.5001 14.8013 12.5001 12.5002C12.5001 10.199 10.6346 8.3335 8.33341 8.3335C6.03223 8.3335 4.16675 10.199 4.16675 12.5002C4.16675 14.8013 6.03223 16.6668 8.33341 16.6668Z" stroke="white" stroke-width="2"/>
<path d="M12.5 12.5H29.1667" stroke="white" stroke-width="2" stroke-linecap="round" stroke-linejoin="round"/>
<path d="M10.4167 16.6665L18.7501 34.3748" stroke="white" stroke-width="2" stroke-linecap="round" stroke-linejoin="round"/>
</svg>
