<svg width="30" height="30" viewBox="0 0 10 35" fill="none" xmlns="http://www.w3.org/2000/svg">
<path d="M9.48732 11.705L0.89982 12.7813L0.592321 14.2063L2.27982 14.5175C3.38232 14.78 3.59982 15.1775 3.35982 16.2763L0.592321 29.2813C-0.135179 32.645 0.986071 34.2275 3.62232 34.2275C5.66607 34.2275 8.03982 33.2825 9.11607 31.985L9.44607 30.425C8.69607 31.085 7.60107 31.3475 6.87357 31.3475C5.84232 31.3475 5.46732 30.6238 5.73357 29.3488L9.48732 11.705ZM9.74982 3.875C9.74982 4.86956 9.35473 5.82339 8.65147 6.52665C7.94821 7.22991 6.99438 7.625 5.99982 7.625C5.00526 7.625 4.05143 7.22991 3.34817 6.52665C2.64491 5.82339 2.24982 4.86956 2.24982 3.875C2.24982 2.88044 2.64491 1.92661 3.34817 1.22335C4.05143 0.520088 5.00526 0.125 5.99982 0.125C6.99438 0.125 7.94821 0.520088 8.65147 1.22335C9.35473 1.92661 9.74982 2.88044 9.74982 3.875Z" fill="white"/>
</svg>
