<svg width="35" height="35" viewBox="0 0 50 50" fill="none" xmlns="http://www.w3.org/2000/svg">
<path fill-rule="evenodd" clip-rule="evenodd" d="M21.875 0H27.8313V6.93438H21.875V0Z" fill="white"/>
<path fill-rule="evenodd" clip-rule="evenodd" d="M49.9793 8.19043C49.9793 7.14668 48.9824 6.2998 47.7543 6.2998H2.4418C1.21055 6.2998 0.216797 7.14668 0.216797 8.19043V12.3029H3.22305V37.4561H17.0793L9.90742 46.0123C9.4043 46.5186 9.5918 47.5279 10.3324 48.2686L11.6762 49.6092L22.073 37.8279V49.8998H27.8574V37.5061L38.5418 49.6061L39.8824 48.2654C40.623 47.5279 40.8137 46.5154 40.3074 46.0092L32.9168 37.4529H46.6855V12.2998H49.9855V8.19043H49.9793ZM43.848 34.7061H6.12305V12.3029H43.848V34.7061Z" fill="white"/>
</svg>
